<svg viewBox="0 0 1026 1024" version="1.1" xmlns="http://www.w3.org/2000/svg" width="256" height="256"><path d="M514.145217 512.073132m-511.926867 0a511.926868 511.926868 0 1 0 1023.853735 0 511.926868 511.926868 0 1 0-1023.853735 0Z" fill="#836EF9"></path><path d="M514.145217 196.421464c-91.159549 0-315.651669 224.49212-315.651668 315.63948 0 91.171737 224.49212 315.651669 315.651668 315.651668 91.14736 0 315.63948-224.49212 315.63948-315.651668 0-91.14736-224.49212-315.63948-315.63948-315.63948zM464.951483 692.563919c-38.44327-10.482312-141.779365-191.241251-131.309241-229.684521 10.482312-38.44327 191.241251-141.779365 229.684521-131.309241 38.44327 10.482312 141.791554 191.241251 131.309241 229.684521-10.482312 38.44327-191.241251 141.779365-229.684521 131.309241z" fill="#FFFFFF"></path></svg>